<?xml version="1.0" encoding="utf-8"?>
<!-- Generator: Adobe Illustrator 26.3.1, SVG Export Plug-In . SVG Version: 6.00 Build 0)  -->
<svg version="1.1" xmlns="http://www.w3.org/2000/svg" xmlns:xlink="http://www.w3.org/1999/xlink" x="0px" y="0px"
	 viewBox="0 0 600 300" style="enable-background:new 0 0 600 300;" xml:space="preserve">
<style type="text/css">
	.st0{display:none;}
	.st1{fill:#FFFFFF;}
</style>
<g id="Layer_2" class="st0">
</g>
<g id="Layer_1">
	<g>
		<g>
			<path class="st1" d="M202.25,144.49c-0.19,14.27-3.49,25.64-11.39,35.41c-6.18,7.65-14.08,12.51-23.97,13.67
				c-6.48,0.76-12.63-0.67-18.36-3.72c-8.68-4.64-14.76-11.76-18.5-20.71c-7.54-18.06-6.57-35.7,3.77-52.49
				c4.43-7.2,10.62-12.65,18.68-15.53c12.18-4.34,23.27-1.94,33.05,6.29c8.63,7.26,13.4,16.82,15.53,27.73
				C201.8,138.81,202.02,142.58,202.25,144.49z M153.42,146.56c0.09,0.99,0.17,2.23,0.31,3.46c0.48,4.23,1.48,8.32,4.19,11.7
				c3.64,4.52,7.52,4.93,11.24,0.46c1.54-1.84,2.65-4.2,3.39-6.5c1.53-4.77,1.76-9.71,0.87-14.67c-0.69-3.87-1.87-7.54-4.56-10.55
				c-2.38-2.66-5.26-3.37-8.04-1.89c-1.81,0.96-3.08,2.5-4.08,4.25C154.34,136.99,153.68,141.6,153.42,146.56z"/>
			<path class="st1" d="M323.48,192.97c-7.29-0.26-14.23-1.53-20.51-5.37c-6.75-4.13-11.02-10.23-13.81-17.5
				c-0.61-1.58,0.41-2.72,1.28-3.67c0.79-0.87,1.96-1.59,3.1-1.92c3.74-1.07,7.5-2.13,11.32-2.81c2.22-0.4,4.71-0.74,6.67,1.12
				c0.25,0.24,0.52,0.5,0.68,0.8c2.98,5.41,7.83,7.31,13.69,7.1c1.92-0.07,3.87-0.42,5.74-0.91c2.23-0.58,3.74-2.07,3.87-4.5
				c0.13-2.45-0.79-4.61-3.12-5.53c-2.74-1.07-5.62-1.86-8.5-2.45c-6.12-1.27-12.17-2.67-17.98-5.04
				c-8.43-3.43-13.34-9.72-15.1-18.47c-1.8-8.91-0.34-17.25,5.17-24.67c4.2-5.65,9.89-9.03,16.66-10.64
				c8.38-1.99,16.75-2.26,25.02,0.54c7.51,2.54,12.93,7.56,16.64,14.44c0.64,1.19,0.8,2.87,0.58,4.23
				c-0.14,0.87-1.25,1.87-2.17,2.26c-4.23,1.81-8.52,3.46-12.82,5.08c-0.84,0.32-1.86,0.4-2.75,0.27c-0.69-0.11-1.59-0.57-1.91-1.14
				c-3.57-6.3-10.37-7.39-16.19-5.87c-2.69,0.71-4.01,2.38-4.13,4.87c-0.12,2.64,0.93,4.47,3.67,5.34c3.24,1.02,6.59,1.65,9.89,2.48
				c4.8,1.21,9.63,2.3,14.38,3.69c8.63,2.52,14.09,8.47,16.55,16.87c3.07,10.48,1.87,20.45-5.47,29.06
				c-5.08,5.95-11.69,9.4-19.29,10.9C330.98,192.25,327.21,192.5,323.48,192.97z"/>
			<path class="st1" d="M245.31,97.49c7.8,0.18,14.94,2.04,20.97,7.19c3.36,2.86,5.88,6.36,7.81,10.3c0.91,1.84,0.41,3.88-1.42,4.8
				c-2.96,1.48-6.02,2.77-9.08,4.04c-1.54,0.64-3.15,1.17-4.77,1.58c-2.15,0.55-3.48-0.04-4.73-1.86c-2.21-3.22-5.29-4.97-9.17-5.02
				c-2.05-0.02-4.17,0.2-6.14,0.73c-2.4,0.64-3.56,2.41-3.61,4.68c-0.07,2.73,0.81,4.41,3.37,5.23c3.1,1,6.33,1.62,9.5,2.4
				c4.63,1.14,9.3,2.19,13.9,3.45c8.24,2.27,13.54,7.85,16.11,15.74c3.44,10.58,2.41,20.74-4.63,29.76
				c-4.39,5.62-10.25,9.18-17.1,11.07c-7.77,2.14-15.65,2.54-23.53,0.7c-10.56-2.46-17.51-9.18-21.78-18.93
				c-0.3-0.69-0.56-1.39-0.83-2.09c-1.02-2.66,0.25-4.63,2.87-5.39c4.45-1.3,8.99-2.33,13.44-3.66c2.93-0.88,4.85,0.17,6.09,2.42
				c4.07,7.37,12.93,7.8,18.92,5.75c2.14-0.73,3.55-2.18,3.67-4.55c0.12-2.46-0.76-4.64-3.11-5.52c-2.87-1.08-5.9-1.82-8.91-2.45
				c-5.68-1.18-11.3-2.49-16.7-4.68c-7.82-3.16-12.46-8.99-14.41-17.01c-1.89-7.79-1.21-15.39,2.57-22.55
				c4.52-8.55,11.88-13.26,21.23-14.99C238.95,98.05,242.14,97.86,245.31,97.49z"/>
			<path class="st1" d="M68.88,133.48c-4.2,0.49-8.34,0.99-12.49,1.44c-2.8,0.31-5.61,0.6-8.42,0.8c-2.11,0.15-3.49-0.92-3.88-2.97
				c-1.16-6.09-2.29-12.19-3.38-18.29c-0.41-2.3,1.84-5,4.15-5.29c4.89-0.62,9.77-1.35,14.66-1.98c4.73-0.62,9.47-1.15,14.21-1.77
				c4.23-0.55,8.46-1.18,12.69-1.74c5.99-0.79,11.98-1.55,17.97-2.32c3.11-0.4,6.21-0.85,9.33-1.2c2.48-0.28,4.25,1.18,4.57,3.62
				c0.81,6.21,1.62,12.43,2.42,18.64c0.28,2.15-1.2,4.15-3.34,4.5c-6.18,1.01-12.36,2-18.55,2.97c-0.8,0.12-1.07,0.47-0.97,1.22
				c0.9,7.18,1.8,14.36,2.67,21.54c0.65,5.33,1.24,10.67,1.87,16c0.74,6.21,1.55,12.42,2.26,18.64c0.42,3.69-2.45,6.73-6.17,6.92
				c-5.3,0.27-10.59,0.73-15.89,1.09c-2.12,0.14-4.24,0.31-6.37,0.34c-3.32,0.04-5.63-2.11-5.74-5.4
				c-0.22-6.32-0.35-12.65-0.52-18.98c-0.32-12.3-0.63-24.6-0.95-36.9C68.99,134.12,68.93,133.86,68.88,133.48z"/>
			<path class="st1" d="M537.18,128.09c-0.17,2.57-0.35,4.95-0.49,7.33c-0.67,10.78-1.33,21.56-1.98,32.34
				c-0.44,7.29-0.87,14.58-1.3,21.87c-0.17,2.77-2.39,4.46-5.19,4.13c-2.67-0.31-5.37-0.42-8.06-0.63c-4.8-0.36-9.6-0.68-14.4-1.12
				c-2.39-0.22-3.85-1.89-3.59-4.25c0.68-6.06,1.43-12.12,2.28-18.17c1.95-13.89,3.97-27.78,5.96-41.67
				c0.07-0.48,0.09-0.97,0.09-1.45c-0.01-0.92-0.53-1.29-1.42-1.39c-4.94-0.6-9.89-1.18-14.81-1.88c-2.25-0.32-4.82-3.33-4.24-6.16
				c1.16-5.57,2.14-11.17,3.19-16.76c0.41-2.17,2.58-3.74,4.75-3.53c7.33,0.72,14.67,1.38,22,2.09c6.81,0.66,13.61,1.36,20.42,2.02
				c5.05,0.49,10.11,0.97,15.16,1.41c2.32,0.2,4.26,1.74,4.3,4.03c0.09,4.72-0.05,9.45-0.11,14.18c-0.02,1.33-0.19,2.66-0.11,3.98
				c0.22,3.7-2.41,5.57-5.98,5.09c-3.58-0.48-7.2-0.65-10.81-0.97C541.03,128.44,539.19,128.27,537.18,128.09z"/>
			<path class="st1" d="M442.57,144.19c0-13.41,0-26.83,0-40.24c0-1.75,0.28-3.47,1.91-4.39c1.23-0.69,2.66-1.4,4.02-1.43
				c6.87-0.14,13.74-0.13,20.61-0.03c1.98,0.03,3.93,0.53,5.53,1.93c0.91,0.8,1.33,1.71,1.29,2.9c-0.74,20.79-1.47,41.58-2.21,62.37
				c-0.19,5.22-0.4,10.43-0.61,15.65c-0.06,1.41,0.03,2.87-0.31,4.22c-0.24,0.98-0.86,2.1-1.66,2.66c-1.83,1.28-3.93,1.74-6.27,1.62
				c-5.66-0.3-11.34-0.29-17-0.57c-1.35-0.07-2.75-0.61-3.98-1.23c-1.07-0.54-1.38-1.7-1.38-2.96c0.03-13.5,0.02-27,0.02-40.51
				C442.54,144.19,442.55,144.19,442.57,144.19z"/>
			<path class="st1" d="M396.8,140.79c4.3,0,8.61,0.19,12.9-0.05c4.7-0.26,5.91,2.63,5.66,6.45c-0.06,0.88-0.17,1.75-0.21,2.63
				c-0.11,2.69-0.37,5.39-0.27,8.07c0.17,4.41-1.32,5.65-6.09,5.77c-3.35,0.09-6.72-0.27-10.08-0.42
				c-5.13-0.22-10.26-0.41-15.38-0.64c-1.06-0.05-2.12-0.11-3.17-0.27c-2.41-0.37-3.07-2.34-3.58-4.27
				c-1.03-3.91-0.63-7.91-0.48-11.88c0.09-2.42,1.6-3.8,3.82-4.73c1.68-0.71,3.34-0.72,5.05-0.73c3.94-0.02,7.87-0.01,11.81-0.01
				C396.8,140.74,396.8,140.76,396.8,140.79z"/>
		</g>
	</g>
</g>
</svg>
