<?xml version="1.0" encoding="utf-8"?>
<!-- Generator: Adobe Illustrator 26.3.1, SVG Export Plug-In . SVG Version: 6.00 Build 0)  -->
<svg version="1.1" xmlns="http://www.w3.org/2000/svg" xmlns:xlink="http://www.w3.org/1999/xlink" x="0px" y="0px"
	 viewBox="0 0 600 300" style="enable-background:new 0 0 600 300;" xml:space="preserve">
<style type="text/css">
	.st0{fill:#DCDDDE;}
	.st1{fill:#B6B8BA;}
	.st2{fill:#FFFFFF;}
	.st3{display:none;}
</style>
<g id="Layer_2">
	<g>
		<g id="Layer_4_00000049216504704325240940000000726261857665237650_">
			<polygon class="st0" points="411.2,153.5 415.5,133.8 496.4,123.3 			"/>
			<polygon class="st1" points="419.5,143.1 422.1,149.6 411.2,153.5 			"/>
		</g>
		<g id="Layer_5_00000066505688386215702590000002454711101964591747_">
		</g>
		<g id="Layer_3_00000080204273626213909970000000561841811970076829_">
			<polygon class="st2" points="428.8,167.2 419.5,143.1 496.7,123.2 			"/>
			<polygon class="st2" points="415.5,133.8 408.1,116.8 496.7,123.2 			"/>
		</g>
	</g>
</g>
<g id="Layer_1">
	<g id="Layer_2_00000034070879665351214020000009412470555341784723_" class="st3">
	</g>
	<g id="Layer_1_00000086691500830394792230000010128624018062124419_">
		<g>
			<g>
				<path class="st2" d="M124.7,137.9c-0.1,10.5-2.6,18.9-8.4,26.1c-4.6,5.6-10.4,9.2-17.7,10.1c-4.8,0.6-9.3-0.5-13.5-2.7
					c-6.4-3.4-10.9-8.7-13.6-15.3c-5.6-13.3-4.8-26.3,2.8-38.7c3.3-5.3,7.8-9.3,13.8-11.4c9-3.2,17.1-1.4,24.3,4.6
					c6.4,5.3,9.9,12.4,11.4,20.4C124.4,133.7,124.6,136.5,124.7,137.9z M88.8,139.4c0.1,0.7,0.1,1.6,0.2,2.5
					c0.4,3.1,1.1,6.1,3.1,8.6c2.7,3.3,5.5,3.6,8.3,0.3c1.1-1.4,2-3.1,2.5-4.8c1.1-3.5,1.3-7.2,0.6-10.8c-0.5-2.9-1.4-5.6-3.4-7.8
					c-1.8-2-3.9-2.5-5.9-1.4c-1.3,0.7-2.3,1.8-3,3.1C89.4,132.4,88.9,135.8,88.8,139.4z"/>
				<path class="st2" d="M214,173.6c-5.4-0.2-10.5-1.1-15.1-4c-5-3-8.1-7.5-10.2-12.9c-0.4-1.2,0.3-2,0.9-2.7
					c0.6-0.6,1.4-1.2,2.3-1.4c2.8-0.8,5.5-1.6,8.3-2.1c1.6-0.3,3.5-0.5,4.9,0.8c0.2,0.2,0.4,0.4,0.5,0.6c2.2,4,5.8,5.4,10.1,5.2
					c1.4-0.1,2.9-0.3,4.2-0.7c1.6-0.4,2.8-1.5,2.9-3.3c0.1-1.8-0.6-3.4-2.3-4.1c-2-0.8-4.1-1.4-6.3-1.8c-4.5-0.9-9-2-13.2-3.7
					c-6.2-2.5-9.8-7.2-11.1-13.6c-1.3-6.6-0.3-12.7,3.8-18.2c3.1-4.2,7.3-6.7,12.3-7.8c6.2-1.5,12.3-1.7,18.4,0.4
					c5.5,1.9,9.5,5.6,12.3,10.6c0.5,0.9,0.6,2.1,0.4,3.1c-0.1,0.6-0.9,1.4-1.6,1.7c-3.1,1.3-6.3,2.5-9.4,3.7c-0.6,0.2-1.4,0.3-2,0.2
					c-0.5-0.1-1.2-0.4-1.4-0.8c-2.6-4.6-7.6-5.4-11.9-4.3c-2,0.5-3,1.8-3,3.6c-0.1,1.9,0.7,3.3,2.7,3.9c2.4,0.8,4.9,1.2,7.3,1.8
					c3.5,0.9,7.1,1.7,10.6,2.7c6.4,1.9,10.4,6.2,12.2,12.4c2.3,7.7,1.4,15.1-4,21.4c-3.7,4.4-8.6,6.9-14.2,8
					C219.6,173.1,216.8,173.3,214,173.6z"/>
				<path class="st2" d="M156.4,103.3c5.7,0.1,11,1.5,15.4,5.3c2.5,2.1,4.3,4.7,5.8,7.6c0.7,1.4,0.3,2.9-1,3.5c-2.2,1.1-4.4,2-6.7,3
					c-1.1,0.5-2.3,0.9-3.5,1.2c-1.6,0.4-2.6,0-3.5-1.4c-1.6-2.4-3.9-3.7-6.8-3.7c-1.5,0-3.1,0.1-4.5,0.5c-1.8,0.5-2.6,1.8-2.7,3.4
					c-0.1,2,0.6,3.2,2.5,3.9c2.3,0.7,4.7,1.2,7,1.8c3.4,0.8,6.9,1.6,10.2,2.5c6.1,1.7,10,5.8,11.9,11.6c2.5,7.8,1.8,15.3-3.4,21.9
					c-3.2,4.1-7.6,6.8-12.6,8.2c-5.7,1.6-11.5,1.9-17.3,0.5c-7.8-1.8-12.9-6.8-16-13.9c-0.2-0.5-0.4-1-0.6-1.5c-0.8-2,0.2-3.4,2.1-4
					c3.3-1,6.6-1.7,9.9-2.7c2.2-0.6,3.6,0.1,4.5,1.8c3,5.4,9.5,5.7,13.9,4.2c1.6-0.5,2.6-1.6,2.7-3.4c0.1-1.8-0.6-3.4-2.3-4.1
					c-2.1-0.8-4.3-1.3-6.6-1.8c-4.2-0.9-8.3-1.8-12.3-3.4c-5.8-2.3-9.2-6.6-10.6-12.5c-1.4-5.7-0.9-11.3,1.9-16.6
					c3.3-6.3,8.8-9.8,15.6-11C151.8,103.7,154.1,103.6,156.4,103.3z"/>
				<path class="st2" d="M26.5,129.8c-3.1,0.4-6.1,0.7-9.2,1.1c-2.1,0.2-4.1,0.4-6.2,0.6c-1.6,0.1-2.6-0.7-2.9-2.2
					c-0.9-4.5-1.7-9-2.5-13.5c-0.3-1.7,1.4-3.7,3.1-3.9c3.6-0.5,7.2-1,10.8-1.5c3.5-0.5,7-0.8,10.5-1.3c3.1-0.4,6.2-0.9,9.3-1.3
					c4.4-0.6,8.8-1.1,13.2-1.7c2.3-0.3,4.6-0.6,6.9-0.9c1.8-0.2,3.1,0.9,3.4,2.7c0.6,4.6,1.2,9.2,1.8,13.7c0.2,1.6-0.9,3.1-2.5,3.3
					c-4.6,0.7-9.1,1.5-13.7,2.2c-0.6,0.1-0.8,0.3-0.7,0.9c0.7,5.3,1.3,10.6,2,15.9c0.5,3.9,0.9,7.9,1.4,11.8
					c0.5,4.6,1.1,9.1,1.7,13.7c0.3,2.7-1.8,5-4.5,5.1c-3.9,0.2-7.8,0.5-11.7,0.8c-1.6,0.1-3.1,0.2-4.7,0.3c-2.4,0-4.1-1.6-4.2-4
					c-0.2-4.7-0.3-9.3-0.4-14c-0.2-9.1-0.5-18.1-0.7-27.2C26.6,130.3,26.5,130.1,26.5,129.8z"/>
				<path class="st2" d="M371.4,125.8c-0.1,1.9-0.3,3.6-0.4,5.4c-0.5,7.9-1,15.9-1.5,23.8c-0.3,5.4-0.6,10.7-1,16.1
					c-0.1,2-1.8,3.3-3.8,3c-2-0.2-4-0.3-5.9-0.5c-3.5-0.3-7.1-0.5-10.6-0.8c-1.8-0.2-2.8-1.4-2.6-3.1c0.5-4.5,1.1-8.9,1.7-13.4
					c1.4-10.2,2.9-20.5,4.4-30.7c0.1-0.4,0.1-0.7,0.1-1.1c0-0.7-0.4-1-1-1c-3.6-0.4-7.3-0.9-10.9-1.4c-1.7-0.2-3.6-2.5-3.1-4.5
					c0.9-4.1,1.6-8.2,2.3-12.3c0.3-1.6,1.9-2.8,3.5-2.6c5.4,0.5,10.8,1,16.2,1.5c5,0.5,10,1,15,1.5c3.7,0.4,7.4,0.7,11.2,1
					c1.7,0.1,3.1,1.3,3.2,3c0.1,3.5,0,7-0.1,10.4c0,1-0.1,2-0.1,2.9c0.2,2.7-1.8,4.1-4.4,3.7c-2.6-0.4-5.3-0.5-8-0.7
					C374.3,126.1,372.9,126,371.4,125.8z"/>
				<path class="st2" d="M301.7,137.7c0-9.9,0-19.8,0-29.6c0-1.3,0.2-2.6,1.4-3.2c0.9-0.5,2-1,3-1.1c5.1-0.1,10.1-0.1,15.2,0
					c1.5,0,2.9,0.4,4.1,1.4c0.7,0.6,1,1.3,1,2.1c-0.5,15.3-1.1,30.6-1.6,45.9c-0.1,3.8-0.3,7.7-0.4,11.5c0,1,0,2.1-0.2,3.1
					c-0.2,0.7-0.6,1.5-1.2,2c-1.3,0.9-2.9,1.3-4.6,1.2c-4.2-0.2-8.4-0.2-12.5-0.4c-1-0.1-2-0.4-2.9-0.9c-0.8-0.4-1-1.3-1-2.2
					C301.7,157.6,301.7,147.6,301.7,137.7C301.7,137.7,301.7,137.7,301.7,137.7z"/>
				<path class="st2" d="M268,135.2c3.2,0,6.3,0.1,9.5,0c3.5-0.2,4.4,1.9,4.2,4.8c0,0.6-0.1,1.3-0.2,1.9c-0.1,2-0.3,4-0.2,5.9
					c0.1,3.2-1,4.2-4.5,4.3c-2.5,0.1-5-0.2-7.4-0.3c-3.8-0.2-7.6-0.3-11.3-0.5c-0.8,0-1.6-0.1-2.3-0.2c-1.8-0.3-2.3-1.7-2.6-3.1
					c-0.8-2.9-0.5-5.8-0.4-8.8c0.1-1.8,1.2-2.8,2.8-3.5c1.2-0.5,2.5-0.5,3.7-0.5C262.2,135.1,265.1,135.1,268,135.2
					C268,135.2,268,135.2,268,135.2z"/>
			</g>
		</g>
	</g>
</g>
</svg>
